<svg version="1.2" xmlns="http://www.w3.org/2000/svg" viewBox="0 0 29 24" width="29" height="24">
	<title>1_Home</title>
	<style>
		tspan { white-space:pre } 
		.s0 { fill: #ffffff } 
	</style>
	<g id="banner">
		<g id="rightside">
			<g id="bottom">
				<path id="Shape 1" class="s0" d="m29 14.2c0 3.4-2.7 6.2-6.1 6.2h-2.8c-0.3 0-0.6-0.3-0.6-0.6 0-0.4 0.3-0.7 0.6-0.7h2.8c2.7 0 4.9-2.2 4.9-4.9 0-2.7-2.2-4.9-4.9-4.9q-0.2 0-0.5 0.1-0.3 0-0.5-0.2-0.2-0.2-0.2-0.5c0 0 0.1-0.4 0.1-0.5 0-3.8-3.1-7-6.9-7-1.7 0-3.3 0.7-4.6 1.8-1.2 1.1-2 2.6-2.2 4.2-0.1 0.4-0.4 0.6-0.7 0.6q-0.3 0-0.5 0c-3.1 0-5.7 2.5-5.7 5.6 0 3.2 2.6 5.7 5.7 5.7h2.5c0.3 0 0.6 0.3 0.6 0.7 0 0.3-0.3 0.6-0.6 0.6h-2.5c-3.8 0-6.9-3.1-6.9-7 0-3.8 3.1-6.9 6.9-6.9q0 0 0.1 0c0.3-1.7 1.2-3.3 2.5-4.5 1.5-1.3 3.4-2 5.4-2 4.4 0 8 3.6 8.1 8.1 3.3 0 6 2.8 6 6.1zm-13.5-10.6c0 0.3-0.3 0.6-0.6 0.6-2 0-3.7 1.5-3.9 3.4-0.1 0.4-0.4 0.6-0.7 0.6-0.4-0.1-0.6-0.4-0.6-0.7 0.4-2.6 2.6-4.6 5.2-4.6 0.3 0 0.6 0.3 0.6 0.7zm2.2 18.1l-2.3 2q-0.3 0.3-0.6 0.3-0.4 0-0.7-0.3l-2.3-2c-0.2-0.2-0.2-0.6 0-0.9 0.2-0.2 0.6-0.3 0.9 0l1.4 1.3v-7.7c0-0.3 0.3-0.6 0.7-0.6 0.3 0 0.6 0.3 0.6 0.6v7.7l1.5-1.3c0.2-0.3 0.6-0.2 0.8 0 0.3 0.3 0.2 0.7 0 0.9z"/>
			</g>
		</g>
	</g>
</svg>